<mxfile host="app.diagrams.net" modified="2023-03-18T10:26:35.832Z" agent="5.0 (Windows NT 10.0; Win64; x64) AppleWebKit/537.36 (KHTML, like Gecko) Chrome/111.0.0.0 Safari/537.36" etag="KMfx_pidJWnaHHXJhfcl" version="21.0.8" type="github">
  <diagram name="Page-1" id="CZgrEXLyyUMj1glkqpee">
    <mxGraphModel dx="1434" dy="796" grid="1" gridSize="10" guides="1" tooltips="1" connect="1" arrows="1" fold="1" page="1" pageScale="1" pageWidth="850" pageHeight="1100" background="none" math="0" shadow="0">
      <root>
        <mxCell id="0" />
        <mxCell id="1" parent="0" />
        <mxCell id="2DfE4VBJRfJWYNWnKesD-7" value="" style="rounded=0;whiteSpace=wrap;html=1;strokeWidth=3;perimeterSpacing=13;labelBackgroundColor=none;strokeColor=#0F8B8D;fillColor=#FAE5C7;align=left;sketch=1;curveFitting=1;jiggle=2;fontColor=#143642;shadow=0;glass=0;" vertex="1" parent="1">
          <mxGeometry x="180" y="200" width="390" height="570" as="geometry" />
        </mxCell>
        <mxCell id="2DfE4VBJRfJWYNWnKesD-9" value="" style="rounded=0;whiteSpace=wrap;html=1;labelBackgroundColor=none;fillColor=#FAE5C7;strokeColor=#0F8B8D;fontColor=#143642;shadow=1;" vertex="1" parent="1">
          <mxGeometry x="270" y="350" width="210" height="40" as="geometry" />
        </mxCell>
        <mxCell id="2DfE4VBJRfJWYNWnKesD-10" value="" style="rounded=0;whiteSpace=wrap;html=1;labelBackgroundColor=none;fillColor=#FAE5C7;strokeColor=#0F8B8D;fontColor=#143642;shadow=1;glass=0;" vertex="1" parent="1">
          <mxGeometry x="270" y="420" width="210" height="40" as="geometry" />
        </mxCell>
        <mxCell id="2DfE4VBJRfJWYNWnKesD-11" value="" style="rounded=0;whiteSpace=wrap;html=1;shadow=1;labelBackgroundColor=none;fillColor=#FAE5C7;strokeColor=#0F8B8D;fontColor=#143642;" vertex="1" parent="1">
          <mxGeometry x="270" y="490" width="210" height="40" as="geometry" />
        </mxCell>
        <mxCell id="2DfE4VBJRfJWYNWnKesD-12" value="" style="rounded=0;whiteSpace=wrap;html=1;shadow=1;labelBackgroundColor=none;fillColor=#FAE5C7;strokeColor=#0F8B8D;fontColor=#143642;" vertex="1" parent="1">
          <mxGeometry x="270" y="550" width="210" height="40" as="geometry" />
        </mxCell>
        <mxCell id="2DfE4VBJRfJWYNWnKesD-13" value="Choose your&amp;nbsp;franchise" style="text;strokeColor=none;align=center;fillColor=none;html=1;verticalAlign=middle;whiteSpace=wrap;rounded=0;fontStyle=1;fontSize=20;sketch=1;curveFitting=1;jiggle=2;fontFamily=Architects Daughter;fontSource=https%3A%2F%2Ffonts.googleapis.com%2Fcss%3Ffamily%3DArchitects%2BDaughter;labelBackgroundColor=none;fontColor=#143642;" vertex="1" parent="1">
          <mxGeometry x="245" y="270" width="250" height="30" as="geometry" />
        </mxCell>
        <mxCell id="2DfE4VBJRfJWYNWnKesD-14" value="&lt;b&gt;&lt;font style=&quot;font-size: 16px;&quot;&gt;Club 10 Chicken&lt;/font&gt;&lt;/b&gt;" style="text;strokeColor=none;align=center;fillColor=none;html=1;verticalAlign=middle;whiteSpace=wrap;rounded=0;fontStyle=2;fontColor=#143642;fontFamily=Comic Sans MS;labelBackgroundColor=none;shadow=0;" vertex="1" parent="1">
          <mxGeometry x="290" y="355" width="160" height="30" as="geometry" />
        </mxCell>
        <mxCell id="2DfE4VBJRfJWYNWnKesD-16" value="The Grill Theory" style="text;strokeColor=none;align=center;fillColor=none;html=1;verticalAlign=middle;whiteSpace=wrap;rounded=0;fontFamily=Comic Sans MS;fontSize=15;fontStyle=3;labelBackgroundColor=none;fontColor=#143642;" vertex="1" parent="1">
          <mxGeometry x="285" y="425" width="170" height="30" as="geometry" />
        </mxCell>
        <mxCell id="2DfE4VBJRfJWYNWnKesD-17" value="Franchise name" style="text;strokeColor=none;align=center;fillColor=none;html=1;verticalAlign=middle;whiteSpace=wrap;rounded=0;fontStyle=3;fontFamily=Comic Sans MS;fontSize=17;labelBackgroundColor=none;fontColor=#143642;sketch=1;curveFitting=1;jiggle=2;" vertex="1" parent="1">
          <mxGeometry x="295" y="495" width="150" height="30" as="geometry" />
        </mxCell>
        <mxCell id="2DfE4VBJRfJWYNWnKesD-19" value="Franchise name" style="text;strokeColor=none;align=center;fillColor=none;html=1;verticalAlign=middle;whiteSpace=wrap;rounded=0;fontStyle=3;fontFamily=Comic Sans MS;fontSize=17;labelBackgroundColor=none;fontColor=#143642;" vertex="1" parent="1">
          <mxGeometry x="295" y="550" width="150" height="30" as="geometry" />
        </mxCell>
      </root>
    </mxGraphModel>
  </diagram>
</mxfile>
